<svg width="22" height="22" viewBox="0 0 22 22" fill="none" xmlns="http://www.w3.org/2000/svg">
<path d="M3.20837 19.2502C2.84171 19.2502 2.52087 19.1127 2.24587 18.8377C1.97087 18.5627 1.83337 18.2418 1.83337 17.8752V6.87516C1.83337 6.5085 1.97087 6.18766 2.24587 5.91266C2.52087 5.63766 2.84171 5.50016 3.20837 5.50016H7.33337V3.2085C7.33337 2.84183 7.47087 2.521 7.74587 2.246C8.02087 1.971 8.34171 1.8335 8.70837 1.8335H13.2917C13.6584 1.8335 13.9792 1.971 14.2542 2.246C14.5292 2.521 14.6667 2.84183 14.6667 3.2085V5.50016H18.7917C19.1584 5.50016 19.4792 5.63766 19.7542 5.91266C20.0292 6.18766 20.1667 6.5085 20.1667 6.87516V17.8752C20.1667 18.2418 20.0292 18.5627 19.7542 18.8377C19.4792 19.1127 19.1584 19.2502 18.7917 19.2502H3.20837ZM3.20837 17.8752H18.7917V6.87516H3.20837V17.8752ZM8.70837 5.50016H13.2917V3.2085H8.70837V5.50016ZM3.20837 17.8752V6.87516V17.8752Z" fill="#11006F"/>
</svg>
