<svg width="41" height="41" viewBox="0 0 41 41" fill="none" xmlns="http://www.w3.org/2000/svg">
<g clip-path="url(#clip0_3_681)">
<path d="M23.5012 5.12787H26.3522V12.102H23.5012V5.12787Z" fill="#ECEAEC"/>
<path d="M31.0921 21.047L17.2679 23.2547L5.62158 21.0469L4.92963 12.6717C4.92963 11.7604 5.88592 11.0217 6.79713 11.0217H8.4923L11.6923 15.7497L14.8923 11.0217H29.4422C30.3534 11.0217 31.0921 11.7604 31.0921 12.6717V21.047Z" fill="#998AED"/>
<path d="M7.27142 11.0218H5.09353C4.18232 11.0218 3.4436 11.7604 3.4436 12.6717V21.0469L5.62149 21.3947V12.6716C5.62157 11.7604 6.36021 11.0218 7.27142 11.0218Z" fill="#4D38BC"/>
<path d="M5.96796 3.03298C7.36212 3.03298 6.78419 4.1632 6.78419 5.55736L8.49234 8.07181V18.0242H14.8923V5.55728C14.8923 4.16312 13.762 3.0329 12.3679 3.0329H5.96796V3.03298Z" fill="#ECEAEC"/>
<path d="M5.96799 3.03296C4.57383 3.03296 3.4436 4.16318 3.4436 5.55734V8.07179H8.49229V5.55734C8.49237 4.1631 7.36215 3.03296 5.96799 3.03296Z" fill="#DAD8DB"/>
<path d="M30.1515 6H20.0792C19.6106 6 19 5.42764 19 4.99016L19.0204 1.4923C19.0204 1.05483 19.7125 0 20.1811 0H30.1515C30.6201 0 31 0.354619 31 0.79209V5.20791C31 5.64538 30.6201 6 30.1515 6Z" fill="#FFA600"/>
<path d="M27.3292 18.0241H20.7851C20.3428 18.0241 19.5167 17.7295 19.5167 17.2872L19.5551 15.0771C19.5551 14.6348 20.3428 14.0446 20.7851 14.0446H27.3292C27.7715 14.0446 28.13 14.4031 28.13 14.8453V17.2233C28.13 17.6656 27.7715 18.0241 27.3292 18.0241Z" fill="#ECEAEC"/>
<path d="M20.2833 17.1992V14.8695C20.2833 14.414 20.6526 14.0446 21.1083 14.0446H19.6272C19.1716 14.0446 18.8022 14.4139 18.8022 14.8695V17.1992C18.8022 17.6548 19.1716 18.0241 19.6272 18.0241H21.1083C20.6526 18.0241 20.2833 17.6548 20.2833 17.1992Z" fill="#DAD8DB"/>
<path d="M12.3545 8.69037H10.7904C10.4487 8.69037 10.1717 8.41338 10.1717 8.07169C10.1717 7.72991 10.4487 7.453 10.7904 7.453H12.3545C12.6962 7.453 12.9731 7.72999 12.9731 8.07169C12.9732 8.41338 12.6962 8.69037 12.3545 8.69037Z" fill="#DAD8DB"/>
<path d="M12.3545 11.6405H10.7904C10.4487 11.6405 10.1717 11.3635 10.1717 11.0218C10.1717 10.68 10.4487 10.4031 10.7904 10.4031H12.3545C12.6962 10.4031 12.9731 10.6801 12.9731 11.0218C12.9732 11.3635 12.6962 11.6405 12.3545 11.6405Z" fill="#DAD8DB"/>
<path d="M12.3545 14.5906H10.7904C10.4487 14.5906 10.1717 14.3136 10.1717 13.9719C10.1717 13.6301 10.4487 13.3532 10.7904 13.3532H12.3545C12.6962 13.3532 12.9731 13.6302 12.9731 13.9719C12.9732 14.3136 12.6962 14.5906 12.3545 14.5906Z" fill="#DAD8DB"/>
<path d="M28.8215 3.65161H21.0729C20.7311 3.65161 20.4542 3.37462 20.4542 3.03293C20.4542 2.69124 20.7312 2.41425 21.0729 2.41425H28.8215C29.1633 2.41425 29.4402 2.69124 29.4402 3.03293C29.4402 3.37462 29.1632 3.65161 28.8215 3.65161Z" fill="#ECEAEC"/>
<path d="M16.1767 18.6429H7.20792C6.86622 18.6429 6.58923 18.3659 6.58923 18.0242C6.58923 17.6824 6.86622 17.4055 7.20792 17.4055H16.1767C16.5184 17.4055 16.7954 17.6825 16.7954 18.0242C16.7954 18.3659 16.5184 18.6429 16.1767 18.6429Z" fill="#4D38BC"/>
<path d="M31.0921 21.047H5.62157L1.54712 28.3957L2.16796 29.609L17.5071 31.1088L27.9152 29.3971L31.2411 21.4083L31.0921 21.047Z" fill="#6A56DD"/>
<path d="M32.8859 41H3.48342C2.57221 41 1.73932 40.2613 1.73932 39.3501L2.16798 29.3971H26.4454L29.472 34.0652L34.5358 37.2582V39.3501C34.5358 40.2613 33.7971 41 32.8859 41Z" fill="#998AED"/>
<path d="M2.16796 39.3501V29.3971H0V39.3502C0 40.2613 0.738721 41 1.64993 41H3.81788C2.90668 41 2.16796 40.2613 2.16796 39.3501Z" fill="#6A56DD"/>
<path d="M3.44368 21.0469L0 29.3971H2.17788L5.62156 21.0469H3.44368Z" fill="#5D4CBF"/>
<path d="M26.433 28.9462C26.433 29.0975 26.4374 29.2478 26.4454 29.3971L27.9609 30.8317L28.7341 30.663L30.1746 29.3971L32.0275 23.3152L31.2411 21.4083C28.4039 22.7335 26.433 25.6137 26.433 28.9462Z" fill="#5D4CBF"/>
<path d="M26.4454 29.3971C26.5002 30.4191 26.7408 31.3924 27.1334 32.2844H30.8235C31.2791 32.2844 31.6485 32.6537 31.6485 33.1094V36.6614C32.5448 37.0227 33.5177 37.2327 34.5357 37.2582V29.3971H26.4454Z" fill="#4D38BC"/>
<path d="M4.62209 37.2877L4.35406 33.1093C4.35406 32.6537 5.03137 32.2844 5.48693 32.2844H27.1334L29.3909 34.5798L31.6484 36.6614V37.2877C31.6484 37.7434 31.2791 38.1127 30.8234 38.1127H5.62154C5.1659 38.1127 4.62209 37.7433 4.62209 37.2877Z" fill="#ECEAEC"/>
<path d="M31.6484 36.6614V33.1093C31.6484 32.6538 31.2791 32.2844 30.8234 32.2844H27.1334C28.0066 34.2684 29.6328 35.8487 31.6484 36.6614Z" fill="#DAD8DB"/>
<path d="M17.8618 35.8173H16.6739C16.3322 35.8173 16.0552 35.5403 16.0552 35.1986C16.0552 34.8569 16.3322 34.5799 16.6739 34.5799H17.8618C18.2035 34.5799 18.4805 34.8569 18.4805 35.1986C18.4805 35.5403 18.2035 35.8173 17.8618 35.8173Z" fill="#11006F"/>
<path d="M10.2257 24.3756H8.96347C8.62178 24.3756 8.34479 24.0986 8.34479 23.7569C8.34479 23.4152 8.62178 23.1382 8.96347 23.1382H10.2257C10.5674 23.1382 10.8443 23.4152 10.8443 23.7569C10.8443 24.0986 10.5674 24.3756 10.2257 24.3756Z" fill="#11006F"/>
<path d="M15.3412 24.3756H14.079C13.7373 24.3756 13.4603 24.0986 13.4603 23.7569C13.4603 23.4152 13.7373 23.1382 14.079 23.1382H15.3412C15.6829 23.1382 15.9599 23.4152 15.9599 23.7569C15.9599 24.0986 15.6829 24.3756 15.3412 24.3756Z" fill="#11006F"/>
<path d="M20.4567 24.3756H19.1945C18.8528 24.3756 18.5758 24.0986 18.5758 23.7569C18.5758 23.4152 18.8528 23.1382 19.1945 23.1382H20.4567C20.7984 23.1382 21.0754 23.4152 21.0754 23.7569C21.0754 24.0986 20.7984 24.3756 20.4567 24.3756Z" fill="#11006F"/>
<path d="M25.5722 24.3756H24.31C23.9683 24.3756 23.6913 24.0986 23.6913 23.7569C23.6913 23.4152 23.9683 23.1382 24.31 23.1382H25.5722C25.914 23.1382 26.1909 23.4152 26.1909 23.7569C26.1909 24.0986 25.914 24.3756 25.5722 24.3756Z" fill="#11006F"/>
<path d="M10.2257 27.1132H8.96347C8.62178 27.1132 8.34479 26.8362 8.34479 26.4945C8.34479 26.1528 8.62178 25.8759 8.96347 25.8759H10.2257C10.5674 25.8759 10.8443 26.1528 10.8443 26.4945C10.8443 26.8362 10.5674 27.1132 10.2257 27.1132Z" fill="#11006F"/>
<path d="M15.3412 27.1132H14.079C13.7373 27.1132 13.4603 26.8362 13.4603 26.4945C13.4603 26.1528 13.7373 25.8759 14.079 25.8759H15.3412C15.6829 25.8759 15.9599 26.1528 15.9599 26.4945C15.9599 26.8362 15.6829 27.1132 15.3412 27.1132Z" fill="#11006F"/>
<path d="M20.4567 27.1132H19.1945C18.8528 27.1132 18.5758 26.8362 18.5758 26.4945C18.5758 26.1528 18.8528 25.8759 19.1945 25.8759H20.4567C20.7984 25.8759 21.0754 26.1528 21.0754 26.4945C21.0754 26.8362 20.7984 27.1132 20.4567 27.1132Z" fill="#11006F"/>
<path d="M25.5722 27.1132H24.31C23.9683 27.1132 23.6913 26.8362 23.6913 26.4945C23.6913 26.1528 23.9683 25.8759 24.31 25.8759H25.5722C25.914 25.8759 26.1909 26.1528 26.1909 26.4945C26.1909 26.8362 25.914 27.1132 25.5722 27.1132Z" fill="#11006F"/>
<path d="M41 28.9462C41 32.133 38.6158 34.7629 35.5338 35.1496C35.2764 35.1818 35.0139 35.0862 34.7478 35.0862C31.2947 35.0862 29.2125 32.3993 29.2125 28.9462C29.2125 25.4932 31.2947 22.7838 34.7478 22.7838C35.0224 22.7838 35.2929 22.7117 35.5582 22.7459C38.6283 23.1433 41 25.7678 41 28.9462Z" fill="#FFA600"/>
<path d="M30.1585 28.9462C30.1585 25.7753 32.5196 23.1575 35.5793 22.7507C35.307 22.7145 35.0299 22.694 34.7477 22.694C31.2947 22.694 28.4955 25.4932 28.4955 28.9462C28.4955 32.3993 31.2947 35.1985 34.7477 35.1985C35.0299 35.1985 35.3071 35.178 35.5793 35.1418C32.5196 34.7349 30.1585 32.1172 30.1585 28.9462Z" fill="#FFA600"/>
<path d="M34.7478 28.326C34.7324 28.326 34.7171 28.3266 34.702 28.3277C34.2813 28.3039 33.9464 27.9541 33.9464 27.5275C33.9464 27.0856 34.3059 26.7261 34.7478 26.7261C35.1896 26.7261 35.5492 27.0856 35.5492 27.5275C35.5492 27.8693 35.8262 28.1462 36.1679 28.1462C36.5096 28.1462 36.7866 27.8692 36.7866 27.5275C36.7866 26.6189 36.189 25.8475 35.3665 25.5849V24.8338C35.3665 24.4921 35.0895 24.2151 34.7478 24.2151C34.4061 24.2151 34.1291 24.4921 34.1291 24.8338V25.5849C33.3064 25.8475 32.709 26.6189 32.709 27.5275C32.709 28.6517 33.6236 29.5664 34.7479 29.5664C34.7632 29.5664 34.7785 29.5659 34.7937 29.5648C35.2143 29.5886 35.5493 29.9383 35.5493 30.3649C35.5493 30.8068 35.1897 31.1663 34.7479 31.1663C34.306 31.1663 33.9464 30.8068 33.9464 30.3649C33.9464 30.0231 33.6694 29.7462 33.3277 29.7462C32.9861 29.7462 32.7091 30.0232 32.7091 30.3649C32.7091 31.2735 33.3066 32.0449 34.1292 32.3075V33.0587C34.1292 33.4004 34.4062 33.6773 34.7479 33.6773C35.0895 33.6773 35.3665 33.4003 35.3665 33.0587V32.3075C36.1892 32.0449 36.7866 31.2736 36.7866 30.3649C36.7866 29.2407 35.872 28.326 34.7478 28.326Z" fill="#ECEAEC"/>
</g>
<defs>
<clipPath id="clip0_3_681">
<rect width="41" height="41" fill="white"/>
</clipPath>
</defs>
</svg>
