<svg width="24" height="24" viewBox="0 0 24 24" fill="none" xmlns="http://www.w3.org/2000/svg">
<path d="M10 11.999H20" stroke="#11006F" stroke-width="1.5" stroke-linecap="round" stroke-linejoin="round"/>
<path d="M4 11.999H6" stroke="#11006F" stroke-width="1.5" stroke-linecap="round" stroke-linejoin="round"/>
<path d="M10 11.999C10 10.8944 9.10457 9.99899 8 9.99899C6.89543 9.99899 6 10.8944 6 11.999C6 13.1036 6.89543 13.999 8 13.999C9.10457 13.999 10 13.1036 10 11.999Z" stroke="#11006F" stroke-width="1.5" stroke-linecap="round" stroke-linejoin="round"/>
<path d="M18 4.99899H20" stroke="#11006F" stroke-width="1.5" stroke-linecap="round" stroke-linejoin="round"/>
<path d="M4 4.99899L14 4.99899" stroke="#11006F" stroke-width="1.5" stroke-linecap="round" stroke-linejoin="round"/>
<path d="M18 4.99899C18 3.89442 17.1046 2.99899 16 2.99899C14.8954 2.99899 14 3.89442 14 4.99899C14 6.10356 14.8954 6.99899 16 6.99899C17.1046 6.99899 18 6.10356 18 4.99899Z" stroke="#11006F" stroke-width="1.5" stroke-linecap="round" stroke-linejoin="round"/>
<path d="M15 19H20" stroke="#11006F" stroke-width="1.5" stroke-linecap="round" stroke-linejoin="round"/>
<path d="M4 19H11" stroke="#11006F" stroke-width="1.5" stroke-linecap="round" stroke-linejoin="round"/>
<path d="M15 18.999C15 17.8944 14.1046 16.999 13 16.999C11.8954 16.999 11 17.8944 11 18.999C11 20.1036 11.8954 20.999 13 20.999C14.1046 20.999 15 20.1036 15 18.999Z" stroke="#11006F" stroke-width="1.5" stroke-linecap="round" stroke-linejoin="round"/>
</svg>
