<svg width="32" height="16" viewBox="0 0 32 16" fill="none" xmlns="http://www.w3.org/2000/svg">
<rect width="32" height="16" rx="4" fill="#FF2525"/>
<path d="M12.06 4C12.22 4 12.35 4.05333 12.45 4.16C12.55 4.26667 12.6 4.4 12.6 4.56V10.39C12.6 10.5633 12.54 10.71 12.42 10.83C12.3067 10.9433 12.1633 11 11.99 11C11.9033 11 11.8133 10.9867 11.72 10.96C11.6333 10.9267 11.5667 10.8833 11.52 10.83L7.59 5.84L7.85 5.68V10.44C7.85 10.6 7.79667 10.7333 7.69 10.84C7.59 10.9467 7.45667 11 7.29 11C7.13 11 7 10.9467 6.9 10.84C6.8 10.7333 6.75 10.6 6.75 10.44V4.61C6.75 4.43667 6.80667 4.29333 6.92 4.18C7.04 4.06 7.18667 4 7.36 4C7.45333 4 7.55 4.02 7.65 4.06C7.75 4.09333 7.82333 4.14667 7.87 4.22L11.68 9.08L11.51 9.2V4.56C11.51 4.4 11.56 4.26667 11.66 4.16C11.76 4.05333 11.8933 4 12.06 4ZM16.5235 11.1C15.9568 11.1 15.4635 10.9833 15.0435 10.75C14.6302 10.51 14.3102 10.1867 14.0835 9.78C13.8635 9.37333 13.7535 8.91333 13.7535 8.4C13.7535 7.8 13.8735 7.29 14.1135 6.87C14.3602 6.44333 14.6802 6.11667 15.0735 5.89C15.4668 5.66333 15.8835 5.55 16.3235 5.55C16.6635 5.55 16.9835 5.62 17.2835 5.76C17.5902 5.9 17.8602 6.09333 18.0935 6.34C18.3268 6.58 18.5102 6.86 18.6435 7.18C18.7835 7.5 18.8535 7.84 18.8535 8.2C18.8468 8.36 18.7835 8.49 18.6635 8.59C18.5435 8.69 18.4035 8.74 18.2435 8.74H14.4235L14.1235 7.74H17.7935L17.5735 7.94V7.67C17.5602 7.47667 17.4902 7.30333 17.3635 7.15C17.2435 6.99667 17.0902 6.87667 16.9035 6.79C16.7235 6.69667 16.5302 6.65 16.3235 6.65C16.1235 6.65 15.9368 6.67667 15.7635 6.73C15.5902 6.78333 15.4402 6.87333 15.3135 7C15.1868 7.12667 15.0868 7.29667 15.0135 7.51C14.9402 7.72333 14.9035 7.99333 14.9035 8.32C14.9035 8.68 14.9768 8.98667 15.1235 9.24C15.2768 9.48667 15.4702 9.67667 15.7035 9.81C15.9435 9.93667 16.1968 10 16.4635 10C16.7102 10 16.9068 9.98 17.0535 9.94C17.2002 9.9 17.3168 9.85333 17.4035 9.8C17.4968 9.74 17.5802 9.69 17.6535 9.65C17.7735 9.59 17.8868 9.56 17.9935 9.56C18.1402 9.56 18.2602 9.61 18.3535 9.71C18.4535 9.81 18.5035 9.92667 18.5035 10.06C18.5035 10.24 18.4102 10.4033 18.2235 10.55C18.0502 10.6967 17.8068 10.8267 17.4935 10.94C17.1802 11.0467 16.8568 11.1 16.5235 11.1ZM26.062 5.65C26.2153 5.65 26.3486 5.71 26.462 5.83C26.5753 5.94333 26.632 6.09 26.632 6.27C26.632 6.31667 26.6286 6.36 26.622 6.4C26.6153 6.43333 26.6053 6.46667 26.592 6.5L25.062 10.62C25.0153 10.7533 24.932 10.8567 24.812 10.93C24.692 10.9967 24.5653 11.02 24.432 11C24.2053 10.9867 24.0353 10.86 23.922 10.62L22.932 7.77L23.192 7.78L22.262 10.62C22.1486 10.86 21.9786 10.9867 21.752 11C21.6253 11.02 21.4986 10.9967 21.372 10.93C21.252 10.8567 21.1686 10.7533 21.122 10.62L19.592 6.5C19.5653 6.42667 19.552 6.35 19.552 6.27C19.552 6.11 19.6053 5.96667 19.712 5.84C19.8186 5.71333 19.9653 5.65 20.152 5.65C20.2786 5.65 20.392 5.68 20.492 5.74C20.592 5.8 20.662 5.89667 20.702 6.03L21.912 9.31L21.662 9.29L22.572 6.82C22.6786 6.57333 22.862 6.45 23.122 6.45C23.2686 6.45 23.3786 6.48333 23.452 6.55C23.532 6.61 23.5953 6.7 23.642 6.82L24.552 9.29L24.252 9.33L25.482 6.03C25.562 5.77667 25.7553 5.65 26.062 5.65Z" fill="white"/>
</svg>
