<svg width="22" height="22" viewBox="0 0 22 22" fill="none" xmlns="http://www.w3.org/2000/svg">
<path d="M11.0001 10.771C11.4431 10.771 11.8213 10.6144 12.1345 10.3012C12.4477 9.98801 12.6042 9.60989 12.6042 9.16683C12.6042 8.72377 12.4477 8.34565 12.1345 8.03245C11.8213 7.71926 11.4431 7.56266 11.0001 7.56266C10.557 7.56266 10.1789 7.71926 9.86571 8.03245C9.55251 8.34565 9.39592 8.72377 9.39592 9.16683C9.39592 9.60989 9.55251 9.98801 9.86571 10.3012C10.1789 10.6144 10.557 10.771 11.0001 10.771ZM11.0001 18.3564C13.032 16.5078 14.5331 14.8311 15.5032 13.3262C16.4733 11.8213 16.9584 10.496 16.9584 9.35016C16.9584 7.54739 16.3817 6.07308 15.2282 4.92725C14.0747 3.78141 12.6654 3.2085 11.0001 3.2085C9.3348 3.2085 7.92543 3.78141 6.77196 4.92725C5.61848 6.07308 5.04175 7.54739 5.04175 9.35016C5.04175 10.496 5.53828 11.8213 6.53133 13.3262C7.52439 14.8311 9.01397 16.5078 11.0001 18.3564ZM11.0001 20.1668C8.54036 18.0738 6.70321 16.1297 5.48862 14.3345C4.27404 12.5394 3.66675 10.8779 3.66675 9.35016C3.66675 7.0585 4.4039 5.2328 5.87821 3.87308C7.35251 2.51336 9.0598 1.8335 11.0001 1.8335C12.9404 1.8335 14.6476 2.51336 16.122 3.87308C17.5963 5.2328 18.3334 7.0585 18.3334 9.35016C18.3334 10.8779 17.7261 12.5394 16.5115 14.3345C15.297 16.1297 13.4598 18.0738 11.0001 20.1668Z" fill="#11006F"/>
</svg>
