<svg xmlns="http://www.w3.org/2000/svg" xmlns:xlink="http://www.w3.org/1999/xlink" version="1.1" x="0px" y="0px" viewBox="0 0 90 90" enable-background="new 0 0 90 90" xml:space="preserve" preserveAspectRatio="none" width="90" height="90" class="" fill="rgba(255, 255, 255, 1)"><g fill="#FFFFFF"><g fill="#FFFFFF"><path d="M88.923,5.149c-0.121-3.03-2.634-5.325-5.692-5.139l-54.13,3.333c-3.137,0.193-5.708,2.924-5.708,6.068    v0.837h-0.01v53.145c-0.904-0.006-1.824,0.078-2.743,0.284l-10.049,2.245c-6.563,1.469-10.699,7.983-9.23,14.55    c1.468,6.568,7.981,10.699,14.549,9.23l10.046-2.245c5.778-1.291,9.667-6.492,9.518-12.195h0.01V23.117l41.351-2.544v30.938    c-0.904-0.005-1.824,0.081-2.743,0.284l-10.049,2.248c-6.566,1.468-10.698,7.983-9.23,14.547c1.468,6.569,7.98,10.701,14.55,9.23    l10.043-2.245c5.781-1.29,9.67-6.49,9.521-12.192h0.01V14.111V5.378V5.149H88.923z" fill="#FFFFFF"></path></g></g></svg>